<?xml version="1.0" encoding="UTF-8" standalone="no"?>
<svg width="429px" height="344px" viewBox="0 0 429 344" version="1.1" xmlns="http://www.w3.org/2000/svg" xmlns:xlink="http://www.w3.org/1999/xlink" xmlns:sketch="http://www.bohemiancoding.com/sketch/ns">
    <!-- Generator: Sketch 3.0.4 (8054) - http://www.bohemiancoding.com/sketch -->
    <title>Rectangle 1</title>
    <desc>Created with Sketch.</desc>
    <defs></defs>
    <g id="Page-1" stroke="none" stroke-width="1" fill="none" fill-rule="evenodd" sketch:type="MSPage">
        <path d="M3.9972998,0 C1.78965208,0 0,1.79979503 0,4.00490831 L0,51.9950917 C0,54.2069415 1.79230382,56 3.9972998,56 L424.0027,56 C426.210348,56 428,54.200205 428,51.9950917 L428,4.00490831 C428,1.79305852 426.207696,0 424.0027,0 L3.9972998,0 Z M3.9972998,144 C1.78965208,144 0,145.799795 0,148.004908 L0,195.995092 C0,198.206941 1.79230382,200 3.9972998,200 L424.0027,200 C426.210348,200 428,198.200205 428,195.995092 L428,148.004908 C428,145.793059 426.207696,144 424.0027,144 L3.9972998,144 Z M4.9972998,288 C2.78965208,288 1,289.799795 1,292.004908 L1,339.995092 C1,342.206941 2.79230382,344 4.9972998,344 L425.0027,344 C427.210348,344 429,342.200205 429,339.995092 L429,292.004908 C429,289.793059 427.207696,288 425.0027,288 L4.9972998,288 Z" id="Rectangle-1" fill="#000000" sketch:type="MSShapeGroup"></path>
    </g>
</svg>